<svg width="40" height="40" viewBox="0 0 40 40" fill="none" xmlns="http://www.w3.org/2000/svg">
  <path d="M19.9794 3.81668C19.4077 3.48335 18.664 3.48335 18.0924 3.81668L6.13404 10.65C5.55404 10.9833 5.17578 11.6 5.17578 12.2833V26.05C5.17578 26.7333 5.55404 27.35 6.13404 27.6833L9.14144 29.4C10.5581 30.1167 11.2414 30.1167 11.8131 30.1167C13.9414 30.1167 15.2081 28.7667 15.2081 26.5V12.9167C15.2081 12.7333 15.0581 12.5833 14.8747 12.5833H13.5581C13.3747 12.5833 13.2247 12.7333 13.2247 12.9167V26.5C13.2247 27.5667 12.1581 28.3667 10.1747 27.4333L7.01738 25.6333C6.92571 25.5833 6.85238 25.4833 6.85238 25.3667V12.9667C6.85238 12.85 6.92571 12.75 7.01738 12.7L18.8414 5.9C18.9331 5.85 19.0581 5.85 19.1497 5.9L30.9747 12.7C31.0664 12.75 31.1414 12.85 31.1414 12.9667V25.3667C31.1414 25.4833 31.0664 25.5833 30.9747 25.6333L19.1497 32.4333C19.0581 32.4833 18.9331 32.4833 18.8414 32.4333L15.9247 30.75C15.8497 30.7 15.7414 30.6833 15.6497 30.7333C14.8081 31.2167 14.6247 31.2833 13.9414 31.5167C13.7581 31.5833 13.4581 31.7 14.0914 32.05L17.9581 34.2333C18.2914 34.4167 18.6864 34.5 19.0581 34.5C19.4297 34.5 19.8247 34.4167 20.1581 34.2333L31.9831 27.4C32.5631 27.0667 32.9414 26.45 32.9414 25.7667V11.9C32.9414 11.2167 32.5631 10.6 31.9831 10.2667L19.9794 3.81668Z" fill="url(#paint0_linear)"/>
  <path d="M23.9455 25.2166C19.7788 25.2166 18.8455 23.7166 18.8455 22.4666C18.8455 22.2833 18.6955 22.1333 18.5121 22.1333H17.1621C16.9788 22.1333 16.8288 22.2833 16.8288 22.4666C16.8288 24.1333 17.8121 26.9166 23.9455 26.9166C29.0121 26.9166 31.5121 24.5666 31.5121 21.6666C31.5121 18.7666 29.7621 17.7833 24.4788 17.25C19.1621 16.7166 18.4455 16.3 18.4455 15.1333C18.4455 14.15 18.9621 12.85 23.3288 12.85C27.3621 12.85 28.5955 13.9 28.9121 15.8666C28.9455 16.05 29.0788 16.1833 29.2621 16.1833H30.6288C30.7121 16.1833 30.7955 16.15 30.8621 16.0833C30.9288 16.0166 30.9621 15.9333 30.9621 15.85C30.7121 13.05 28.7621 11.15 23.3288 11.15C18.4455 11.15 16.3955 13.05 16.3955 15.2C16.3955 18.1166 18.4121 19.15 23.2288 19.5833C28.0455 20.0166 29.4955 20.3666 29.4955 21.6666C29.4788 22.8333 28.8121 24.5166 23.9455 24.5166V25.2166Z" fill="url(#paint1_linear)"/>
  <defs>
    <linearGradient id="paint0_linear" x1="8.9999" y1="3.5" x2="28.77" y2="34.5" gradientUnits="userSpaceOnUse">
      <stop offset="0.259336" stop-color="#75caca"/>
      <stop offset="1" stop-color="#4db8b6"/>
    </linearGradient>
    <linearGradient id="paint1_linear" x1="18.5789" y1="11.15" x2="29.775" y2="26.9166" gradientUnits="userSpaceOnUse">
      <stop offset="0.259336" stop-color="#75caca"/>
      <stop offset="1" stop-color="#4db8b6"/>
    </linearGradient>
  </defs>
</svg>
