<svg width="40" height="40" viewBox="0 0 40 40" fill="none" xmlns="http://www.w3.org/2000/svg">
  <path d="M33.75 13.75L23.75 8.125V13.75L30 16.875L33.75 13.75Z" fill="url(#paint0_linear)"/>
  <path d="M23.75 16.875L30 13.75L23.75 10.625V16.875Z" fill="url(#paint1_linear)"/>
  <path d="M16.25 21.25L23.75 25V18.75L16.25 15V21.25Z" fill="url(#paint2_linear)"/>
  <path d="M23.75 18.75L16.25 15L23.75 11.25V18.75Z" fill="url(#paint3_linear)"/>
  <path d="M16.25 22.5L10 19.375L16.25 16.25V22.5Z" fill="url(#paint4_linear)"/>
  <path d="M6.25 13.75L16.25 8.125V13.75L10 16.875L6.25 13.75Z" fill="url(#paint5_linear)"/>
  <path d="M16.25 16.875L10 13.75L16.25 10.625V16.875Z" fill="url(#paint6_linear)"/>
  <path d="M16.25 30L23.75 26.25V20L16.25 23.75V30Z" fill="url(#paint7_linear)"/>
  <path d="M23.75 20L16.25 23.75L23.75 27.5V20Z" fill="url(#paint8_linear)"/>
  <path d="M23.75 31.25L30 28.125L23.75 25V31.25Z" fill="url(#paint9_linear)"/>
  <defs>
    <linearGradient id="paint0_linear" x1="25.9375" y1="8.125" x2="31.5625" y2="16.875" gradientUnits="userSpaceOnUse">
      <stop offset="0.259336" stop-color="#75caca"/>
      <stop offset="1" stop-color="#4db8b6"/>
    </linearGradient>
    <linearGradient id="paint1_linear" x1="25" y1="10.625" x2="28.75" y2="16.875" gradientUnits="userSpaceOnUse">
      <stop offset="0.259336" stop-color="#75caca"/>
      <stop offset="1" stop-color="#4db8b6"/>
    </linearGradient>
    <linearGradient id="paint2_linear" x1="18.4375" y1="15" x2="21.5625" y2="25" gradientUnits="userSpaceOnUse">
      <stop offset="0.259336" stop-color="#75caca"/>
      <stop offset="1" stop-color="#4db8b6"/>
    </linearGradient>
    <linearGradient id="paint3_linear" x1="18.4375" y1="11.25" x2="21.5625" y2="18.75" gradientUnits="userSpaceOnUse">
      <stop offset="0.259336" stop-color="#75caca"/>
      <stop offset="1" stop-color="#4db8b6"/>
    </linearGradient>
    <linearGradient id="paint4_linear" x1="11.875" y1="16.25" x2="14.375" y2="22.5" gradientUnits="userSpaceOnUse">
      <stop offset="0.259336" stop-color="#75caca"/>
      <stop offset="1" stop-color="#4db8b6"/>
    </linearGradient>
    <linearGradient id="paint5_linear" x1="8.4375" y1="8.125" x2="14.0625" y2="16.875" gradientUnits="userSpaceOnUse">
      <stop offset="0.259336" stop-color="#75caca"/>
      <stop offset="1" stop-color="#4db8b6"/>
    </linearGradient>
    <linearGradient id="paint6_linear" x1="11.875" y1="10.625" x2="14.375" y2="16.875" gradientUnits="userSpaceOnUse">
      <stop offset="0.259336" stop-color="#75caca"/>
      <stop offset="1" stop-color="#4db8b6"/>
    </linearGradient>
    <linearGradient id="paint7_linear" x1="18.4375" y1="20" x2="21.5625" y2="30" gradientUnits="userSpaceOnUse">
      <stop offset="0.259336" stop-color="#75caca"/>
      <stop offset="1" stop-color="#4db8b6"/>
    </linearGradient>
    <linearGradient id="paint8_linear" x1="18.4375" y1="20" x2="21.5625" y2="27.5" gradientUnits="userSpaceOnUse">
      <stop offset="0.259336" stop-color="#75caca"/>
      <stop offset="1" stop-color="#4db8b6"/>
    </linearGradient>
    <linearGradient id="paint9_linear" x1="25" y1="25" x2="28.75" y2="31.25" gradientUnits="userSpaceOnUse">
      <stop offset="0.259336" stop-color="#75caca"/>
      <stop offset="1" stop-color="#4db8b6"/>
    </linearGradient>
  </defs>
</svg>
