<svg width="40" height="40" viewBox="0 0 40 40" fill="none" xmlns="http://www.w3.org/2000/svg">
  <path d="M3.33334 3.33333H36.6667V36.6667H3.33334V3.33333ZM24.5167 30.6833C25.0833 31.8 26.05 32.8333 27.8167 32.8333C29.3 32.8333 30.2167 32.1167 30.2167 31.0333C30.2167 29.7667 29.2333 29.3 27.5 28.5667L26.55 28.1833C23.85 27.1 22.0167 25.7167 22.0167 22.65C22.0167 19.8333 24.1833 17.6667 27.65 17.6667C30.1667 17.6667 32 18.55 33.3333 20.8333L30.4 22.7333C29.9667 21.7667 29.4167 21.3167 27.65 21.3167C26.8667 21.3167 26.3167 21.8667 26.3167 22.65C26.3167 23.6167 26.8667 24.0667 28.4833 24.75L29.4333 25.1333C32.6 26.4 34.45 27.7333 34.45 30.8833C34.45 34.2833 31.8667 36.55 27.9 36.55C24.0167 36.55 21.6 34.55 20.5 32.3L24.5167 30.6833ZM11.15 30.9167C11.6333 31.8 12.0833 32.5667 13.3333 32.5667C14.5167 32.5667 15.25 32.1167 15.25 30.2833V18.0167H19.5667V30.3333C19.5667 34.8 17.0833 36.5333 13.5 36.5333C10.2667 36.5333 8.36667 34.5833 7.5 32.7333L11.15 30.9167Z" fill="url(#paint0_linear)"/>
  <defs>
    <linearGradient id="paint0_linear" x1="6.66668" y1="3.33333" x2="30.6833" y2="39.4333" gradientUnits="userSpaceOnUse">
      <stop offset="0.259336" stop-color="#75caca"/>
      <stop offset="1" stop-color="#4db8b6"/>
    </linearGradient>
  </defs>
</svg>
