<svg width="40" height="40" viewBox="0 0 40 40" fill="none" xmlns="http://www.w3.org/2000/svg">
  <path fill-rule="evenodd" clip-rule="evenodd" d="M20 3.33334C10.8 3.33334 3.33334 10.8 3.33334 20C3.33334 27.35 8.11667 33.55 14.7833 35.8C15.65 35.9667 15.9833 35.4333 15.9833 34.9833C15.9833 34.5833 15.9667 33.4333 15.9667 32.0667C11.6667 32.9833 10.5667 31.1167 10.2333 30.1333C10.0333 29.6333 9.18334 28.1333 8.41667 27.7333C7.78334 27.4167 6.91667 26.5 8.4 26.4833C9.8 26.4667 10.85 27.6833 11.1667 28.2C12.9667 30.7167 15.55 30.2 16.0333 29.75C16.2 28.65 16.6833 27.9 17.2167 27.4833C13.6333 27.0667 9.88334 25.6 9.88334 19.3C9.88334 17.5 10.6333 16.0167 11.2 14.8833C11.0167 14.45 10.35 12.7167 11.35 10.4833C11.35 10.4833 12.85 10.0333 15.9833 12.3833C17.3833 11.9833 18.8833 11.7833 20.3833 11.7833C21.8833 11.7833 23.3833 11.9833 24.7833 12.3833C27.9167 10.0167 29.4167 10.4833 29.4167 10.4833C30.4167 12.7167 29.75 14.45 29.5667 14.8833C30.15 16.0167 30.8833 17.5 30.8833 19.3C30.8833 25.6167 27.1167 27.0667 23.5333 27.4833C24.2 28 24.7667 29 24.7667 30.5667C24.7667 32.8667 24.75 34.4167 24.75 34.9833C24.75 35.4333 25.0833 35.9833 25.95 35.8C32.6167 33.55 37.4 27.35 37.4 20C37.4 10.8 29.9333 3.33334 20 3.33334Z" fill="url(#paint0_linear)"/>
  <defs>
    <linearGradient id="paint0_linear" x1="6.66668" y1="3.33334" x2="30.6833" y2="39.4333" gradientUnits="userSpaceOnUse">
      <stop offset="0.259336" stop-color="#75caca"/>
      <stop offset="1" stop-color="#4db8b6"/>
    </linearGradient>
  </defs>
</svg>
