<svg width="40" height="40" viewBox="0 0 40 40" fill="none" xmlns="http://www.w3.org/2000/svg">
  <path d="M20 23.9333C22.2 23.9333 24 22.1333 24 19.9333C24 17.7333 22.2 15.9333 20 15.9333C17.8 15.9333 16 17.7333 16 19.9333C16 22.1333 17.8 23.9333 20 23.9333Z" fill="url(#paint0_linear)"/>
  <path d="M20 27.5999C11.2 27.5999 3.9 24.7999 3.9 19.9999C3.9 15.1999 11.2 12.3999 20 12.3999C28.8 12.3999 36.1 15.1999 36.1 19.9999C36.1 24.7999 28.8 27.5999 20 27.5999ZM20 13.9999C11.9 13.9999 5.5 16.5999 5.5 19.9999C5.5 23.3999 11.9 25.9999 20 25.9999C28.1 25.9999 34.5 23.3999 34.5 19.9999C34.5 16.5999 28.1 13.9999 20 13.9999Z" fill="url(#paint1_linear)"/>
  <path d="M15.3 33.0666C14.5 33.0666 13.9 32.8666 13.4 32.4666C11.5 30.8666 12.3 25.7666 16.1 19.9666C12.3 14.1666 11.5 9.06664 13.4 7.46664C15.3 5.86664 20.4 7.86664 26 13.4666C31.6 7.86664 36.7 5.86664 38.6 7.46664C40.5 9.06664 39.7 14.1666 35.9 19.9666C39.7 25.7666 40.5 30.8666 38.6 32.4666C36.7 34.0666 31.6 32.0666 26 26.4666C22.8 29.7666 19.7 32.0666 17.1 32.9666C16.4 33.0666 15.8 33.0666 15.3 33.0666ZM15.3 8.46664C14.9 8.46664 14.5 8.56664 14.2 8.86664C13.1 9.86664 13.6 14.1666 17.1 19.4666C17.4 19.8666 17.7 20.3666 18 20.8666C17.7 21.3666 17.4 21.8666 17.1 22.2666C13.6 27.5666 13.1 31.8666 14.2 32.8666C15.3 33.8666 19.6 32.2666 24.9 26.9666C25.3 26.5666 25.8 26.0666 26.3 25.5666C26.7 25.9666 27.2 26.4666 27.7 26.8666C32.9 32.0666 37.1 33.5666 38.2 32.5666C39.3 31.5666 38.8 27.2666 35.3 21.9666C35 21.5666 34.7 21.0666 34.4 20.5666C34.7 20.0666 35 19.5666 35.3 19.1666C38.8 13.8666 39.3 9.56664 38.2 8.56664C37.1 7.56664 32.8 9.06664 27.5 14.3666C27.1 14.7666 26.6 15.2666 26.1 15.7666C25.7 15.3666 25.2 14.8666 24.7 14.4666C19.5 9.26664 15.3 7.76664 14.2 8.76664C14.8 8.46664 14.9 8.46664 15.3 8.46664Z" fill="url(#paint2_linear)"/>
  <defs>
    <linearGradient id="paint0_linear" x1="17.3333" y1="15.9333" x2="22.6667" y2="23.9333" gradientUnits="userSpaceOnUse">
      <stop offset="0.259336" stop-color="#75caca"/>
      <stop offset="1" stop-color="#4db8b6"/>
    </linearGradient>
    <linearGradient id="paint1_linear" x1="11.35" y1="12.3999" x2="29.0333" y2="27.5999" gradientUnits="userSpaceOnUse">
      <stop offset="0.259336" stop-color="#75caca"/>
      <stop offset="1" stop-color="#4db8b6"/>
    </linearGradient>
    <linearGradient id="paint2_linear" x1="19.85" y1="5.9" x2="32.1667" y2="34.2333" gradientUnits="userSpaceOnUse">
      <stop offset="0.259336" stop-color="#75caca"/>
      <stop offset="1" stop-color="#4db8b6"/>
    </linearGradient>
  </defs>
</svg>
